<svg width="247" height="54" viewBox="0 0 247 54" fill="none" xmlns="http://www.w3.org/2000/svg">
<path d="M53.568 7.648L46.144 52H32.512L27.008 18.144L21.184 52H7.872L0.576 7.648H11.072L15.488 44.064L21.632 7.648H32.64L38.4 44.064L43.584 7.648H53.568ZM68.2675 18.016V52H58.1555V18.016H68.2675ZM63.1475 0.0959969C64.8968 0.0959969 66.3262 0.650664 67.4355 1.76C68.5875 2.82666 69.1635 4.192 69.1635 5.856C69.1635 7.52 68.5875 8.90666 67.4355 10.016C66.3262 11.0827 64.8968 11.616 63.1475 11.616C61.3982 11.616 59.9688 11.0827 58.8595 10.016C57.7502 8.90666 57.1955 7.52 57.1955 5.856C57.1955 4.192 57.7502 2.82666 58.8595 1.76C59.9688 0.650664 61.3982 0.0959969 63.1475 0.0959969ZM85.242 53.088C82.298 53.088 79.994 52.256 78.33 50.592C76.7087 48.8853 75.898 46.4747 75.898 43.36V4.512L86.01 3.424V42.976C86.01 44.384 86.586 45.088 87.738 45.088C88.3353 45.088 88.89 44.9813 89.402 44.768L91.386 51.936C89.5513 52.704 87.5033 53.088 85.242 53.088ZM104.242 53.088C101.298 53.088 98.994 52.256 97.33 50.592C95.7087 48.8853 94.898 46.4747 94.898 43.36V4.512L105.01 3.424V42.976C105.01 44.384 105.586 45.088 106.738 45.088C107.335 45.088 107.89 44.9813 108.402 44.768L110.386 51.936C108.551 52.704 106.503 53.088 104.242 53.088ZM140.914 42.144C140.914 43.424 141.084 44.3627 141.426 44.96C141.81 45.5573 142.407 46.0053 143.218 46.304L141.106 52.896C139.015 52.7253 137.308 52.2773 135.986 51.552C134.663 50.784 133.639 49.5893 132.914 47.968C130.695 51.3813 127.282 53.088 122.674 53.088C119.303 53.088 116.615 52.1067 114.61 50.144C112.604 48.1813 111.602 45.6213 111.602 42.464C111.602 38.752 112.967 35.9147 115.698 33.952C118.428 31.9893 122.375 31.008 127.538 31.008H130.994V29.536C130.994 27.5307 130.567 26.1653 129.714 25.44C128.86 24.672 127.367 24.288 125.234 24.288C124.124 24.288 122.78 24.4587 121.202 24.8C119.623 25.0987 118.002 25.5253 116.338 26.08L114.034 19.424C116.167 18.6133 118.343 17.9947 120.562 17.568C122.823 17.1413 124.914 16.928 126.833 16.928C131.698 16.928 135.26 17.9307 137.522 19.936C139.783 21.9413 140.914 24.9493 140.914 28.96V42.144ZM125.618 45.856C127.922 45.856 129.714 44.768 130.994 42.592V36.576H128.498C126.194 36.576 124.466 36.9813 123.314 37.792C122.204 38.6027 121.65 39.8613 121.65 41.568C121.65 42.9333 121.991 44 122.674 44.768C123.399 45.4933 124.38 45.856 125.618 45.856ZM168.872 16.928C171.816 16.928 174.12 17.824 175.784 19.616C177.448 21.408 178.28 23.9253 178.28 27.168V52H168.168V28.896C168.168 27.1893 167.891 26.016 167.336 25.376C166.824 24.6933 166.035 24.352 164.968 24.352C162.92 24.352 160.957 25.824 159.08 28.768V52H148.968V18.016H157.8L158.504 22.048C159.955 20.3413 161.512 19.0613 163.176 18.208C164.883 17.3547 166.781 16.928 168.872 16.928ZM215.538 34.336C215.538 35.744 215.474 36.96 215.346 37.984H194.29C194.631 40.8427 195.442 42.848 196.722 44C198.002 45.152 199.772 45.728 202.034 45.728C203.399 45.728 204.722 45.4933 206.002 45.024C207.282 44.512 208.668 43.744 210.162 42.72L214.322 48.352C210.354 51.5093 205.938 53.088 201.074 53.088C195.57 53.088 191.346 51.4667 188.402 48.224C185.458 44.9813 183.986 40.6293 183.986 35.168C183.986 31.712 184.604 28.6187 185.842 25.888C187.079 23.1147 188.892 20.9387 191.282 19.36C193.671 17.7387 196.53 16.928 199.858 16.928C204.764 16.928 208.604 18.464 211.378 21.536C214.151 24.608 215.538 28.8747 215.538 34.336ZM205.618 31.456C205.532 26.2507 203.698 23.648 200.114 23.648C198.364 23.648 196.999 24.288 196.018 25.568C195.079 26.848 194.503 28.96 194.29 31.904H205.618V31.456ZM233.186 16.928C235.618 16.928 237.901 17.2907 240.034 18.016C242.167 18.7413 244.045 19.7653 245.666 21.088L241.954 26.784C239.181 25.0347 236.386 24.16 233.57 24.16C232.247 24.16 231.223 24.3947 230.498 24.864C229.815 25.2907 229.474 25.9093 229.474 26.72C229.474 27.36 229.623 27.8933 229.922 28.32C230.263 28.704 230.925 29.1093 231.906 29.536C232.887 29.9627 234.402 30.4747 236.45 31.072C239.991 32.096 242.615 33.44 244.322 35.104C246.071 36.7253 246.946 38.9867 246.946 41.888C246.946 44.192 246.285 46.1973 244.962 47.904C243.639 49.568 241.826 50.848 239.522 51.744C237.218 52.64 234.658 53.088 231.842 53.088C228.983 53.088 226.317 52.64 223.842 51.744C221.41 50.848 219.341 49.6107 217.634 48.032L222.562 42.528C225.421 44.7467 228.429 45.856 231.586 45.856C233.122 45.856 234.317 45.5787 235.17 45.024C236.066 44.4693 236.514 43.68 236.514 42.656C236.514 41.8453 236.343 41.2053 236.002 40.736C235.661 40.2667 234.999 39.84 234.018 39.456C233.037 39.0293 231.479 38.5173 229.346 37.92C225.975 36.9387 223.458 35.5733 221.794 33.824C220.13 32.0747 219.298 29.8987 219.298 27.296C219.298 25.3333 219.853 23.584 220.962 22.048C222.114 20.4693 223.735 19.232 225.826 18.336C227.959 17.3973 230.413 16.928 233.186 16.928Z" fill="#141414"/>
</svg>
